<svg xmlns="http://www.w3.org/2000/svg" viewBox="0 0 820 720" width="820" height="720">
  <rect width="820" height="720" fill="#ffffff"/>
  <g fill="none" stroke="#111111" stroke-width="5" stroke-linecap="round" stroke-linejoin="round">
    <!-- head / bald cranium down to bearded jaw -->
    <path d="M410 330
             C405 150 505 78 615 120
             C712 158 726 285 700 380
             C684 470 640 560 560 606
             C505 636 452 632 415 588"/>
    <!-- left cheek / jaw back up to temple -->
    <path d="M415 588 C388 545 380 430 410 330"/>

    <!-- forehead wrinkles -->
    <path d="M470 210 C540 188 620 190 690 214"/>
    <path d="M462 236 C540 214 626 216 700 244"/>
    <path d="M470 262 C544 244 622 246 694 272"/>

    <!-- eyebrows -->
    <path d="M486 356 C520 336 560 338 590 356"/>
    <path d="M628 352 C660 336 694 340 716 360"/>

    <!-- eyes (looking left) -->
    <path d="M500 392 C520 372 566 372 590 396 C566 420 520 420 500 392 Z"/>
    <path d="M636 388 C658 370 700 372 720 394 C700 418 660 418 636 388 Z"/>
    <circle cx="524" cy="396" r="13" fill="#111"/>
    <circle cx="662" cy="392" r="13" fill="#111"/>

    <!-- nose -->
    <path d="M612 402 C606 452 600 496 588 520 C606 536 636 534 652 520"/>

    <!-- open shocked mouth -->
    <path d="M556 566 C556 528 636 528 638 566 C640 606 558 610 556 566 Z" fill="#111" stroke="#111"/>

    <!-- beard stubble strokes along the jaw/chin -->
    <g stroke-width="3">
      <path d="M470 470 l-14 26 M498 502 l-12 28 M534 528 l-10 28 M576 546 l-8 30
               M624 548 l-4 30 M666 536 l4 30 M700 512 l12 26 M714 470 l18 22
               M452 432 l-18 18 M700 452 l20 12"/>
    </g>

    <!-- neck + shoulders -->
    <path d="M470 604 C470 648 470 680 470 712"/>
    <path d="M600 606 C610 650 640 690 690 712"/>
    <path d="M430 660 C500 636 560 636 600 654"/>

    <!-- pointing arm reaching to the LEFT -->
    <path d="M470 616 C360 636 250 690 120 700"/>
    <path d="M470 664 C360 690 250 712 150 720"/>
    <!-- pointing hand / index finger -->
    <path d="M150 700 C120 690 96 672 84 646 C104 636 128 638 150 648"/>
    <path d="M84 646 C70 640 58 646 54 660 C64 672 82 672 96 664"/>
    <path d="M150 700 C138 710 130 716 118 718"/>
  </g>
</svg>
